<svg height='100px' width='100px'  fill="#E67700" xmlns="http://www.w3.org/2000/svg" viewBox="0 0 90 90" x="0px" y="0px"><title>pangea2</title><g data-name="Layer 2"><g><path d="M64.24,75.69,64,75.63v-.28l-.21-.15L63.71,75h-.25l-.12.32-.19.34s-.06.24-.07.28a1,1,0,0,1-.07.19,1.31,1.31,0,0,1-.21.19c-.06,0-.09.24-.09.24l-.24.19c-.06,0-.15.16-.21.21s-.18,0-.18,0L62,76.74h-.15l-.35-.1v-.15a.86.86,0,0,1,.13-.25s-.12-.16-.21-.18-.15,0-.28,0a1,1,0,0,0-.37,0,1.09,1.09,0,0,0,0-.26,1,1,0,0,1,0-.24,1.16,1.16,0,0,0,.24-.15,1.12,1.12,0,0,0,.12-.16s0-.26,0-.31a.36.36,0,0,0,.06-.16L61,74.54l-.15-.13a.47.47,0,0,0-.12.1c0,.06-.18,0-.18,0l-.16-.15.24-.28-.12-.15h-.18s-.25-.06-.29-.12a.28.28,0,0,0-.16-.07s-.22,0-.25-.07-.1-.32-.12-.37a1.45,1.45,0,0,1,0-.35c0-.06,0-.4,0-.4l-.1-.48-.07-.25a2.45,2.45,0,0,0-.18-.24s.06-.18.06-.18l.15-.18a1.41,1.41,0,0,1,.35,0l.16-.09,0-.25h.18l.22-.19.22-.18.12-.35v-.34l0-.44-.06-.4-.1-.18V68.6a1.91,1.91,0,0,1-.1-.47.63.63,0,0,0,0-.2,1.66,1.66,0,0,0,0-.23s-.11-.1-.12-.14l0-.23s-.07-.16-.09-.22a.81.81,0,0,1,0-.24l.09-.16a1.13,1.13,0,0,1-.1-.24,1.4,1.4,0,0,1,0-.23s-.15-.18-.15-.18L60,66h-.16l-.15-.13a.36.36,0,0,1-.09-.14c0-.06-.14-.08-.17-.13s-.16,0-.16,0a1.66,1.66,0,0,0-.18-.16,1.18,1.18,0,0,1-.15-.1l-.37-.23V65a1.54,1.54,0,0,0-.2-.23l0-.23a2.36,2.36,0,0,0,0-.27L58,64l-.12-.27c-.1-.24-.09-.19-.08-.17l-.06-.16-.12-.2a.86.86,0,0,0-.2-.18l-.08-.12a.25.25,0,0,1,0-.17,1.33,1.33,0,0,0,0-.29.79.79,0,0,0-.09-.22,1.14,1.14,0,0,1-.08-.16,1.72,1.72,0,0,1,.06-.29l0-.17,0-.24-.21-.24-.46-.34a.57.57,0,0,1-.08-.29s-.2-.2-.2-.2l0,.13-.46-.17a1.88,1.88,0,0,0-.34,0s-.25-.16-.28-.19,0-.18,0-.18l-.26-.08-.18,0-.27-.2-.21.07-.49-.12a4.88,4.88,0,0,1-.35-.39,3,3,0,0,0-.32-.3l-.3-.14a1.26,1.26,0,0,0-.23,0,2.85,2.85,0,0,1-.1-.27s.22-.24.23-.33.09-.47.09-.47H53l0,.46.23.24.15.2.06.22.18,0,.24.24s.29.31.29.31l.19-.27.17-.22.35-.11.33-.2.24-.06.2,0,.13-.07.23-.14h.61l.31,0,.12-.07-.14-.16-.16-.12-.22,0,0-.16-.16-.08H56l-.24-.07,0-.22a2,2,0,0,1-.12-.24s-.19-.06-.19-.06l-.23-.06v-.2l.16-.1.17-.11.43-.2s0-.28,0-.31a1.68,1.68,0,0,1,0-.18v-.17L56,55.78l-.15,0-.11.15-.24.08h-.33s-.15.11-.18.14a.74.74,0,0,1-.22.11l-.18,0-.11.16-.22.1-.06-.19.15-.19.19-.2.34-.13.35,0,.2,0,.27-.1.27-.25.38,0,.13-.2.07-.31.18-.14s.15,0,.15,0h.19s.07-.12.07-.12l-.17-.1,0-.24a1.72,1.72,0,0,0,.15-.18l.13-.22.25,0,.06-.16.19-.44a2.71,2.71,0,0,0,.15-.29s.14-.16.14-.16l.07-.1a1.22,1.22,0,0,0-.06-.18,1.32,1.32,0,0,0-.21-.13l-.12-.24-.18-.19-.28-.14a3,3,0,0,1-.4-.19.55.55,0,0,1-.12-.15c0-.06.08-.09.08-.09l.17,0,.32.15.36.06h.2l.06-.12,0-.27-.24-.21-.16-.34a1.63,1.63,0,0,0-.18-.24,2.54,2.54,0,0,1-.2-.27c0-.08-.2,0-.24,0a2.31,2.31,0,0,1-.32-.24l-.36-.15a2.19,2.19,0,0,1-.22-.09.66.66,0,0,1-.1-.27,2.61,2.61,0,0,0,0-.27s-.14-.17-.17-.22a1.86,1.86,0,0,1-.08-.28s0-.37,0-.4,0-.2,0-.26a.43.43,0,0,0-.08-.16l-.24-.09-.24-.1a1.4,1.4,0,0,1-.16-.13,1.44,1.44,0,0,1-.11-.22s-.25-.24-.27-.26a2.07,2.07,0,0,1-.08-.22s-.21-.24-.24-.25a2.43,2.43,0,0,1-.18-.24s-.09-.15-.12-.16a2,2,0,0,1-.25-.25l-.18-.24a2.38,2.38,0,0,0-.3-.2c-.08,0-.15,0-.21,0l-.32-.11a1.18,1.18,0,0,1-.16-.16l-.2-.34s0-.08,0-.13.09-.24.09-.26a4.35,4.35,0,0,0-.41-.26s0-.32-.06-.36,0-.14.06-.18a1.52,1.52,0,0,1,.15-.14l.08-.23-.2-.22a1.51,1.51,0,0,1-.16-.18s-.17-.26-.2-.3,0-.16,0-.19a1,1,0,0,0-.24-.23.57.57,0,0,0-.22,0l-.31,0-.28.11-.19.09-.22-.06-.14,0s-.36,0-.39,0l-.28,0c-.06,0-.13,0-.28,0a1,1,0,0,1-.3-.07h-.1l-.19-.17L48.26,42a1.83,1.83,0,0,0-.34,0l-.49,0a.7.7,0,0,0-.22,0l-.4.21-.39.27-.26.08-.26,0s-.09,0-.12,0-.1.16-.11.19.09.09.09.09l-.14.08-.1.06a.86.86,0,0,1-.2,0,.53.53,0,0,1-.13-.06l-.28.1a.82.82,0,0,1-.17.11s-.12-.07-.12-.07l-.14,0c-.07,0-.08,0-.12,0s-.06.14-.08.17a.75.75,0,0,1-.15.1L44,43.2,43.92,43l.14-.19.14-.09,0-.12-.08-.19a1,1,0,0,1-.19-.12.18.18,0,0,0-.15-.06,2.66,2.66,0,0,1-.45.06H43l-.37,0a3.65,3.65,0,0,1-.36-.14s0-.13,0-.16-.13-.07-.16-.1a.84.84,0,0,1,0-.24s-.11-.24-.13-.26a1.79,1.79,0,0,0-.17-.15l-.11-.28-.14-.16-.13-.06-.1,0-.14-.07-.07-.18,0-.2s0-.28,0-.33-.19-.15-.21-.18a.53.53,0,0,1,0-.12l-.27-.07-.32-.1s0-.13,0-.17-.12-.1-.12-.1-.16,0-.18-.07a1.33,1.33,0,0,0-.1-.14l-.21,0-.3,0,.12-.13.18,0,.11-.18.29-.15.11-.07,0-.19a.22.22,0,0,1-.13-.06c-.07-.06,0-.06,0-.09s-.21,0-.25,0a.13.13,0,0,1-.1-.11.75.75,0,0,0,0-.15s-.12-.09-.1-.19,0,0,0,0,.08-.11.08-.11l.18-.16.29-.11.16,0s.11-.18.12-.21-.14-.08-.14-.08a3,3,0,0,1-.07-.3s.07-.1.11-.13.07-.19.07-.19v-.19l.31-.06.29-.14.16-.22a1.43,1.43,0,0,0,.06-.23s.06-.08.09-.09a1.09,1.09,0,0,0,.15-.12l.1-.08s.2,0,.23-.1.13,0,.18,0,.08,0,.13,0,0-.13,0-.19.08,0,.12-.06.06-.15.06-.19a.84.84,0,0,1,0-.17s.26,0,.29,0a.3.3,0,0,0,.13,0,1,1,0,0,1,.18,0l.26.12.12,0h.1l.19,0a2.22,2.22,0,0,0,.39-.3,1.53,1.53,0,0,1,.22-.23,1.06,1.06,0,0,1,.18-.11c.06,0,.11,0,.12-.08s-.12-.13-.12-.13l0-.27s0-.12.08-.14a.27.27,0,0,1,.12,0,1.34,1.34,0,0,0,.08-.14S44.5,33,44.44,33s0-.14,0-.17,0-.22,0-.22l-.14-.1a.24.24,0,0,1,0-.11l-.07-.24a.76.76,0,0,0-.06-.19.94.94,0,0,0-.15-.14s0-.25,0-.25a1.14,1.14,0,0,1,.3-.11l.19,0,0-.26L44.3,31s0-.15,0-.18,0-.24,0-.24a1,1,0,0,1-.08-.23,1.4,1.4,0,0,0,0-.23.55.55,0,0,0,0-.24c0-.1,0,0-.11-.07s.08-.19.09-.23.13,0,.13,0a.91.91,0,0,1,.06.18s.11.06.13.09a.77.77,0,0,1,0,.13l.15.11.08.17c0,.08,0,.11,0,.17a.14.14,0,0,0,.06.1l.17-.1s.11,0,.23,0,0,0,0,.09,0,0-.1.08,0,.11,0,.14,0,.08-.09.12a.91.91,0,0,1-.14.14c-.06,0-.06,0-.1,0s-.11,0-.2,0a.18.18,0,0,0-.13.07l.08.12,0,.16a1.36,1.36,0,0,0,.21.1l.2,0s.16-.09.16-.09l.14-.11.24,0,.21.07.14,0,.08-.11.17-.1h.35l.18-.09A.77.77,0,0,1,47,31l.19.09h.29c.14,0,.19.16.21.19a1,1,0,0,0,.12.11l.17-.08.32-.06c.08,0,0,.16,0,.16l.23.1.24-.17a.74.74,0,0,1,.24,0c.13,0,.07-.16.07-.16a1.79,1.79,0,0,1-.07-.17.3.3,0,0,0-.08-.1,1.12,1.12,0,0,1-.18-.16.8.8,0,0,1,0-.14l-.12-.11-.22-.19-.17-.13L48.11,30a1.25,1.25,0,0,1-.22-.07s-.12-.2-.14-.23a2.53,2.53,0,0,0-.32-.1.2.2,0,0,1-.09-.11c0-.06-.19-.12-.23-.13a2.15,2.15,0,0,1-.23,0c-.09,0,0-.09,0-.14s.11-.12.13-.15a1.09,1.09,0,0,1,.18-.12.21.21,0,0,0,.09-.16c0-.1.12-.11.15-.14s.25-.11.25-.15a.73.73,0,0,1,.09-.18l-.06-.1h-.24a1.5,1.5,0,0,0-.24.06H47l-.31-.13h-.26c-.26,0,0,0-.21,0H46c-.25,0,0,0-.11-.14a.54.54,0,0,1-.11-.3V27.7l-.28-.11c-.28-.11-.12-.28-.12-.28l0-.19L45.39,27a1.08,1.08,0,0,1-.16-.21c0-.06.07-.18.07-.18v-.2c0-.2,0-.14,0-.14l.16-.14.09,0h.25l.06-.11a1,1,0,0,1,.34,0c.25,0,0,0,0,0s0,.2,0,.2l0,.22a.52.52,0,0,0,0,.24l.31.13a.78.78,0,0,1,.14.18h.16s.08.06.1.09.26,0,.26,0l.11,0a2.56,2.56,0,0,0,.13-.24l.34.09.08.08c.08.08,0,0,.13,0s0,0,.06,0S48,27,48,27l-.07-.13,0-.12.09,0,.12,0a1,1,0,0,1,.23,0s.07,0,.11.07.06.1.08.15,0,.07,0,.1,0,0-.09.08-.06,0,0,.18l.25.08h.1c.1,0,.09,0,.13,0s.08-.19.08-.19h.18c.08,0,.09,0,.14,0s.4.18.4.18l.25.07h.12l.2.13.14.25s0,.11,0,.2,0,.06,0,.1a.69.69,0,0,0,.09.17c.06.1,0,.14,0,.2a.63.63,0,0,1-.08.14l-.14.12a.65.65,0,0,0,.06.16s0,.14,0,.14l-.21,0s0,.1,0,.16.18.2.18.2a1.57,1.57,0,0,1,.26,0l.27.23a.82.82,0,0,0,.28.1.72.72,0,0,1,.28.26.56.56,0,0,1,.11.22,2.35,2.35,0,0,0,.49.32c.11.06.1,0,.13-.06a2.26,2.26,0,0,1,.4-.17,1.28,1.28,0,0,0,.26-.36c0-.09,0-.06,0-.1a2,2,0,0,1-.06-.24c0-.08.06-.09.08-.14a.55.55,0,0,0,0-.25,1.18,1.18,0,0,0-.11-.19,2.12,2.12,0,0,1,0-.25.94.94,0,0,1,.24-.29,1.66,1.66,0,0,1,.39-.13c.14,0,.07-.07.07-.1a3.32,3.32,0,0,1,.42-.26l.24-.24.2-.12.14-.12a1.1,1.1,0,0,0,.11-.29,1.36,1.36,0,0,0,0-.22,2.58,2.58,0,0,0,0-.27c0-.11,0,0-.06-.09s0,0-.16,0-.11,0-.14-.06a.19.19,0,0,1,0-.12,1.31,1.31,0,0,1,.11-.21.39.39,0,0,0,.18-.14c.1-.12,0,0,0,0s-.09-.15-.11-.18,0-.08,0-.14a.21.21,0,0,0,0-.19.1.1,0,0,1,0-.12l.06-.15v-.2a.48.48,0,0,0,0-.13c0-.06,0,0-.15-.06s-.12,0-.22-.07a.44.44,0,0,0-.14,0l-.16,0s0,0-.12-.09,0,0,0,0,0-.12,0-.18a.19.19,0,0,1,0-.12.31.31,0,0,0,0-.15c0-.06-.07-.09-.11-.12s-.07,0-.18-.07,0,0,0-.06a.53.53,0,0,1,0-.11,1,1,0,0,1,0-.14l0-.09L53,23.55h-.16c-.1,0,0,0-.17-.13s0-.16,0-.16l-.08-.14-.1,0a.47.47,0,0,0-.25,0L52.06,23c-.17-.09,0,0,0-.07s0,0,0-.1a1.27,1.27,0,0,0,0-.18l-.23-.14a1.15,1.15,0,0,0-.39-.13.49.49,0,0,1-.19,0c-.11,0,0,0-.12-.11s0,0-.1-.18a1.29,1.29,0,0,0-.12-.19c-.07-.11,0-.06,0-.16a2.36,2.36,0,0,1-.07-.34.31.31,0,0,1,0-.14.74.74,0,0,0,0-.14c0-.06,0-.07-.06-.1l-.15-.15a.32.32,0,0,1-.07-.16.75.75,0,0,1,.06-.26s.15,0,.24,0,.1,0,.1,0l.12,0a.68.68,0,0,1,.13-.08s.1-.11.1-.11,0-.24,0-.29,0-.14,0-.19a.57.57,0,0,0-.1-.21s-.08-.17-.1-.2a.53.53,0,0,1,0-.2,1.2,1.2,0,0,1,.06-.25c0-.06,0-.17,0-.24s.07-.21.09-.25.06-.27.06-.27l.08-.44a1,1,0,0,0,0-.22s-.07-.2-.07-.2l-.13-.16L51,17.11a1.13,1.13,0,0,1,0-.21.64.64,0,0,0,0-.18l-.11-.16,0-.31,0-.21.12-.24a2,2,0,0,0,0-.27l0-.22-.15-.12s-.08-.24-.08-.24l.1-.31.24-.11,0-.17.26,0h.2s0-.13.07-.14l.14,0,.16.17h.17l.08-.11.56,0,.09.11.37,0a1,1,0,0,1,.14.19l.21,0,.06-.23.17,0a.77.77,0,0,0,.18-.08l.1-.18h.11l.11.11s.19.27.19.27l.18.15.07.28.24.27,0,.46,0,.2.16.15,0,.24.11.14s.1-.29.12-.33.13,0,.13,0a2.41,2.41,0,0,0,.08-.29,1,1,0,0,1,.06-.2l-.18-.1.07-.24,0-.21L55.33,15l-.08-.16,0-.27.21,0,.14,0,0,.21.33.24.16.2.11,0,.15,0L56.3,15l-.2-.11,0-.16.11-.09.26.14.31.07H57l.32.27.19.08.24-.07-.06-.27.13-.17h.12l.16.07,0-.14h.44l.21,0,.25.2h.14l.12.16.17,0,0-.11-.17-.13-.16-.17.08-.1.13,0,.33.12.1.09.15.13L60,15l.17.17.17.12,0,.12h-.21l-.36-.18-.18,0-.24,0-.23-.08s-.1-.16-.1-.16L58.92,15a1,1,0,0,1-.22-.07l-.12-.09,0,.15.11.17.23.23.24.22.36.27h.37l.32.2.28.23.44,0,.76.47.48.24.59.1.38,0,.32-.18-.25-.48-.13-.22-.21-.06-.43-.25.09-.18,0-.15-.24-.18.07-.16-.06-.18.13,0,.09,0v.32l.18,0,.33,0,.18-.16v-.36l0-.25.13-.12h.16a1.36,1.36,0,0,1,0,.15s-.08.12-.08.12a.45.45,0,0,0,0,.2c0,.06.06.08.06.11a.61.61,0,0,1,0,.19.85.85,0,0,1-.13.14s0,.24,0,.28a1.66,1.66,0,0,0,0,.23,1.35,1.35,0,0,0,.08.2l-.08.19.1.24.1.1.07-.25,0-.14,0-.36.07-.14,0-.19,0-.21v-.2l0-.21,0-.35.13-.38-.14-.22-.18-.24v-.2l-.27-.24-.23-.24L62.64,13l-.09-.36L62,12.32l-.32.08-.23.14-.21,0-.26-.1-.19-.19a.87.87,0,0,1-.06-.2l-.21.05h-.18s0-.15,0-.19-.1-.05-.1-.05l-.05-.2.09-.13.14-.08h.21l.26.24h.36l.12-.1a.24.24,0,0,1,.16,0s.19.26.19.26l.1.2a1.48,1.48,0,0,0,.22.06s0-.19,0-.21a1.16,1.16,0,0,1,0-.14l.15,0a1,1,0,0,0,0-.2l.24-.1.26.16s.19.2.19.2l.18,0,.07-.07.08,0v-.19a.47.47,0,0,0-.13,0l0,0-.17-.14a1.52,1.52,0,0,1-.21-.19.12.12,0,0,1,0-.09s.13,0,.13,0a.78.78,0,0,0,0-.11l.07,0A.67.67,0,0,0,63,11s0-.12,0-.12v-.17a1.27,1.27,0,0,0-.23-.05s-.08.08-.1.12-.2,0-.25-.08l-.13-.08s.08-.16.08-.17l.09-.1-.18-.05-.26,0L62,10.4l-.1,0-.1.18-.08.21-.24,0-.06.11.06.1v.14h-.17l-.08-.1-.15-.32,0-.08L61,10.46l-.17-.15h-.2l-.17.06-.08.15-.06.12-.08-.14-.08-.1L60,10.25l0-.14-.19-.2V9.76l-.2-.24-.12-.29-.2-.29-.17-.2-.34-.1-.35-.1L58,8.46l-.37-.11-.28,0L57,8.39l-.19.09-.6.2-.21.1-.29.07-.23,0-.41-.06-.35-.29-.24-.14L54.31,8l-.22-.15,0-.21-.09-.25s-.1-.25-.1-.26,0-.23,0-.23l-.05-.24-.24-.12,0-.21-.11-.14A.39.39,0,0,1,53.42,6V5.83h.19l0-.08-.1-.13-.12,0-.12,0-.06-.31,0-.25,0-.2-.1-.1-.23-.27-.09-.22-.37-.13-.1-.15-.07-.06-.16.05,0-.17-.46-.11-.15-.32-.65-.27-.23-.12-.64,0-.26-.08-.14-.08-.56,0-.42-.19-1.1,0H46.3a1.38,1.38,0,0,0-.25.1l-.25.13-.11-.06s-.15,0-.19,0a.64.64,0,0,0-.17,0,.56.56,0,0,1-.14.15c-.06,0-.13-.05-.15-.05s-.18.13-.21.15a.81.81,0,0,1-.26,0L44.25,3l-.42.11-.19.14,0,0-.09.21s0,.15,0,.17a3.1,3.1,0,0,1-.4.08,1,1,0,0,1-.17,0s0,.17,0,.2,0,.1,0,.1h-.29c-.06,0,0,.08,0,.08l.12.11a.16.16,0,0,1,0,.14.14.14,0,0,1,0,.06.61.61,0,0,1-.19-.07s-.09-.15-.11-.16-.11,0-.15,0,0,.19-.05.21-.14.2-.15.22a4.16,4.16,0,0,1-.54.17c-.08,0,0,.15-.05.18a1.36,1.36,0,0,1-.12.17l-.24,0-.4-.05-.34-.08s-.34,0-.36,0a1.22,1.22,0,0,0-.17.11l-.17.23a.38.38,0,0,1-.09.05l-.11.18.1.08s.28-.12.29-.13l.11-.23.25-.06.07.06L40,5.6a.41.41,0,0,0,0,.22,1.48,1.48,0,0,1,.05.19.27.27,0,0,1-.1.11l-.2.07A.55.55,0,0,1,39.62,6s-.19,0-.19,0h-.59l-.11.13a1.34,1.34,0,0,0,0,.28s-.51,0-.51,0h-.29V6.12L38.15,6l.21,0L38.62,6l.11-.07-.24-.07,0-.11H38l-.27.1a3.45,3.45,0,0,1-.46,0h-.19l-.11-.11,0-.15-.1-.09h-.28l-.11-.08.09-.16h.22L37,5.14,37,4.89l-.12-.05h-.32s0-.08,0-.08l.14-.1.38,0,.21-.08.15-.2.13-.09.25.08V4.2l0-.17L37.16,4h-.45l-.24,0-.19.14v.15L36,4.52s0,.18,0,.19a.69.69,0,0,1,0,.14.65.65,0,0,1-.12.07l-.15,0h-.5l-.16.1-.14.06-.09.16h-.42s-.07.1-.09.12l-.13.1-.24,0s0,.09,0,.09l-.16.14-.17.1a3.62,3.62,0,0,1-.37,0l-.14,0L33,5.75l-.35.13L32.45,6s-.05.07-.05.07l-.11.06h-.11a1.09,1.09,0,0,1-.13-.1A.63.63,0,0,0,31.93,6H31.4a.51.51,0,0,0-.11.07l-.17.08s-.05,0-.05,0l-.24.1-.15.15-.33-.07-.11-.06-.22,0-.08.1-.27.15-.24.18s-.12.17-.15.19L28.84,7l-.24.26v.17l-.16,0h-.2l-.23.1-.19.1-.21.13-.07.28,0,.18-.12.09V8.6s0,.1,0,.1l-.29.06H27l0-.07h-.39l-.16.23-.06.1h-.48l-.09.11-.15.13,0,.3v.15l-.08.11a.6.6,0,0,0,0,.11l.06.08.09,0a1,1,0,0,0,.08-.15s0-.18,0-.18l.14,0,.26,0,.26.18.17.16,0,.11v.18a1.25,1.25,0,0,1,0,.14v.1a1.69,1.69,0,0,1-.14.15l-.12.09.09.1.1,0,.1-.11a1.13,1.13,0,0,1,.17-.07l.08.07.06.1-.11,0-.09,0s-.12.07-.12.1l0,.17,0,.13,0,.07.15,0,.18,0v-.08l.09-.11h.11l.07,0,0,.08-.05.05h.08l.13-.07.1,0v.14l-.1.06,0,.11.12,0a.59.59,0,0,1,.12.06.5.5,0,0,1,0,.11h-.21l-.15.05-.2.22-.24.32-.29.19-.25.31-.22.35-.17.42-.18.27s-.05.34-.05.34l0,.25-.2.22-.25.16-.22.08-.32,0-.17.21-.11.14-.06.13-.05.09-.16.06-.2-.07s0-.13,0-.13l-.1,0-.1,0-.09.13-.13.07-.15.06s-.08.13-.09.15,0,.09,0,.11,0,.08,0,.1a1.12,1.12,0,0,1,0,.18l-.18.22-.16.22-.23.08-.19.07-.15,0-.15.19-.09.16v.14l-.05.18,0,.17-.12.05-.09,0v-.11l.1-.12,0-.08-.13-.05h-.13l0-.15a.88.88,0,0,1,.12-.09l.1,0,.11-.14.15-.07.11-.16.12-.11.16-.12h.19l.17-.09,0-.24,0-.2.23-.15.15-.12.17-.36-.57,0,0,.16-.18,0,0-.17-.31-.05-.12.06-.19.07-.2,0,0,.14a1.47,1.47,0,0,0,0,.17l-.16,0-.06.19-.15.07s0,.09,0,.11a1.73,1.73,0,0,1-.12.17l0,.13.19,0,0,.07,0,.25L21.4,17l-.11.14-.07.06-.12.2-.13.07-.13.2-.06.2h-.39l-.13.28,0,.14-.16.23-.13.28-.15.14v.3l0,.17-.15.15,0,.28-.07.14.11.12.13.05-.1.16-.14,0,0,.15v.16h-.14a.58.58,0,0,0-.19.06s0,.13,0,.13a1.2,1.2,0,0,1-.14.11l-.28,0-.26.08s0,.12,0,.12l.06.11.2,0,.1,0v.09l-.16.13,0,.18.15,0,.08-.19.14-.05.07-.14.19,0,.11.07.14-.11h.48l.31-.12a.9.9,0,0,0,.11-.14A1.15,1.15,0,0,1,20.9,21l.35-.11.32-.22.26-.14,0-.11s0-.14,0-.16.15,0,.15,0l.16.1.15,0,0-.16.24-.09.4-.19.09-.18a2.31,2.31,0,0,1,.27,0,1.33,1.33,0,0,1,0,.28l.31.09L24,20l.34-.17.21-.16h.24l.27,0,.14.19.25,0,.17,0,.2-.07.12.06h.21l.2-.15,0-.11.2-.15.06-.13.26,0,.09.1.19.05.19,0,.09,0,0-.16.15-.14h.14l0,.07v.13l.05.2.07.09.1,0,.11,0,.12-.13,0-.22.21-.05.14,0,.12.09.07.19.08.07.11,0v.16l-.16,0v.21l-.12,0-.12.13.16.15.1.14h.26a.39.39,0,0,1,.11.08v.12h-.1l-.07,0h-.15l-.1.09,0,.15-.14.07,0,.13,0,.1-.14.14,0,.15h.3l.11-.06v-.11l.13-.06.1-.06,0-.15,0-.17.12-.09,0-.11.27,0,.12.07,0,.08.22.21.23.07.15.09.17.12h.61l.12,0a1,1,0,0,1,.15-.08l.15,0,.06.09.1,0,.08.06.05.23.09.18.17.11h.17l.06.05.17.09.4.06.11,0,.12.08.24.06.09.05.18,0h.28l.16,0,0,.17,0,.14-.1.25,0,.14-.12.18,0,.07.1.08.11-.09v-.08l.17,0,.18,0,.07.11s-.09,0-.11.05-.05.07-.05.07l.12.1.13.11.09,0,0,.12s0,.13,0,.13l-.13.05-.1.06s0,.12,0,.14a.36.36,0,0,0,.05.07l.05.13,0,.15.15.09s.06.15.06.16a1.58,1.58,0,0,0,.16.16,2.38,2.38,0,0,1,.14.2s.28.16.31.19a.28.28,0,0,1,.06.17l0,.17-.13.11-.08.07-.22,0h-.17l-.22.1-.08.09-.14,0-.23,0-.12.11-.22.15-.22.21-.14.09-.09,0-.07,0v-.08h-.21l-.11,0-.12-.08,0-.1,0-.16-.2-.05-.07.11-.07.08-.14,0-.08.07,0,.1v.11l-.08.06-.07,0s-.09,0-.09,0l-.18.09H32l-.09-.1a.54.54,0,0,1,0-.12l.07-.07v-.25l-.27-.08s-.09.07-.09.07l0,.18h-.13l-.15-.1v-.07l.12-.1.08-.17-.24-.16-.13,0-.19.08-.15,0V25.8l.12-.12-.1-.06h-.17l-.14.19-.18,0-.07.05V26l.1.14-.12,0-.09,0L30,26.2l.07.1.1.1-.07,0-.07,0-.07.1s.1.09.1.11-.12.08-.12.08l-.1,0-.1-.07-.06-.12-.09-.1,0-.09h-.16s0,.17,0,.19,0,.11,0,.11h-.15l0-.12-.16,0a1.25,1.25,0,0,0-.08.17A.2.2,0,0,0,29,27s0,.12,0,.15-.12,0-.12,0L28.73,27s-.26.23-.27.26a2.47,2.47,0,0,1-.21.2l-.13.11,0,.1.08,0,.07.21s-.21.29-.23.29h-.36l-.14.24-.23.15,0,.16a.74.74,0,0,1,.07.1.27.27,0,0,1,0,.1l0,.13.25.11.08.08a.73.73,0,0,1,0,.11,1.29,1.29,0,0,1-.18.11.65.65,0,0,0-.07.14l0,.13.08.19.35,0,.38-.06.16.19.27.17s0,.24,0,.25.16.22.16.22l.19.21.05.17v.23l.22.36.1.1,0,.15-.09.1a2.69,2.69,0,0,0-.07.27v.1h.31l.18.1.17.2a.55.55,0,0,1,0,.18L30,33l-.14,0-.15-.08-.08,0a.89.89,0,0,0-.07.11s0,.15,0,.15l.26,0H30l.11.11.06.26-.19.26s.11.15.11.15l-.12.23-.19.18.08.22,0,.19-.15.18.21.26.18.17s.12.28.14.3.23.26.23.27.09.22.09.22l.21.23s0,.21,0,.21l.07.23.35.18a.65.65,0,0,1,0,.19l-.12.17-.28-.09-.37-.21-.09-.23-.26-.18,0-.15.08-.26s-.27-.18-.31-.21,0-.27,0-.27l-.12-.4-.3-.26h-.14l.06.28-.15.09-.07.21-.15.19-.07.16-.25.07-.2,0-.1-.22v-.28H28.1l0-.35,0-.28.24,0,0-.14-.18-.15-.1-.18-.27-.06a2.57,2.57,0,0,1-.08-.26l0-.17-.2-.06a1.48,1.48,0,0,1-.05-.2l-.22-.26h-.15s0,.17,0,.18a.71.71,0,0,1,0,.09h-.18l-.16,0-.15-.12-.07-.09-.16,0-.08.09,0,.12.05.2.11.14,0,.15,0,.13v.16l0,.31-.16,0-.09.07s0,.11,0,.12a.8.8,0,0,0,.07.14.89.89,0,0,1,.09.11s.11.16.11.18,0,.53,0,.53l0,.3-.3.31-.14.13-.47,0,0,.24-.08.24s0,.26,0,.29,0,.27,0,.27l-.08.1-.07.15,0,.24L25,38.5l-.24-.07a1.26,1.26,0,0,1,0-.21L24.67,38v-.43l0-.21.14-.22.07-.22,0-.13.08-.11-.25-.06-.26-.06,0-.1-.22-.09-.28-.14-.08-.12L23.66,36l-.11-.19-.23-.23v-.19l-.14-.19-.1-.11-.33,0-.15-.07v-.1l.06-.11v-.19l0-.19-.12-.06-.06-.12.09-.17.08-.24-.12,0v-.38l.25-.32.11-.15.46,0,.55-.2.11-.06.06-.16V32.3l.12-.07.18,0,.17-.08.29-.13v-.21l-.14-.19.18.09h.29l.24,0,.32,0,.17-.15.15-.12v-.11L26,31.21l0-.13.16-.1,0-.16,0-.18-.32-.24-.08,0,0,.26v.24l-.27.24h-.27l-.08.11-.14.12-.1-.07,0-.16V31l.1-.09v-.27h-.09l-.12.26-.15,0-.07-.07,0-.1.18-.25v-.11l-.08-.21-.15,0-.36.21h-.22l-.07-.1.12-.13-.07-.15-.12,0h-.24l0-.26-.07-.18-.23,0-.2-.1,0-.27-.24-.1V29l-.3-.25-.23,0v.25L22,28.77v-.3l-.44-.17-.12-.13,0-.11h.31v-.24l-.24-.17-.13-.12.06-.21v-.61l-.2-.1,0-.14.17-.1.06-.13-.28,0,0-.14.11-.2-.2-.17-.29-.08,0-.15.15-.18,0-.13h-.22l-.12-.09,0-.27,0-.33-.11-.26,0-.26.08-.24,0-.24-.11-.13,0-.23.19-.47,0-.35-.38-.08L20.19,22l-.2-.12-.24-.08-.06-.2-.17.07-.06.21,0,.22-.07.23.13.18-.24.17-.09-.19-.12-.26.09-.15.09-.22-.14-.13-.09.1-.15,0-.15-.12-.17.21-.18.11-.08.2.24,0v.13l-.07.19.17.18c0,.06,0,.21,0,.21l-.16-.07a.38.38,0,0,0,0,.11s-.12.12-.12.12l-.1,0,.06-.24-.2,0V22.5l0-.12-.15-.2-.13-.07,0,.1a.8.8,0,0,1,0,.14s-.15,0-.15,0l-.06.12,0,.21-.19.07-.07-.12,0-.24.11-.14-.11-.09s-.11.18-.12.21a1.46,1.46,0,0,0,0,.17L17,22.7s0,.24,0,.24l.09.17-.09.12-.2,0,0,.22.06.12-.07.18-.09,0-.11-.18-.06-.15v-.23l.15-.21,0-.19.07-.12-.06-.24.06-.23.08-.17L16.76,22l-.09.11-.1.24,0,.27v.19l-.22.25-.09.38-.08.21.09.36.26.29v.19l.13.21.18.11,0-.31h.17l.14.18.19.16.26.28,0,.47,0,.15-.17-.15-.15,0-.14.17v.16l.17.16.17.24v.59l0,.3-.19.27,0,.17.1.17,0,.15-.15,0-.11.15-.08.19.16.32,0,.12L17,29v.24l-.19.43-.3.28-.07.3-.1.19-.23.22L16,30.8V31l-.1.27-.16.16v.2l-.24.13v.13l0,.19-.37.5-.18.08,0,.25v.26l0,.29,0,.43-.2.35-.14.14.06.13v.17l-.23,0-.18.06-.06-.18.21-.13-.07-.22L14.24,34l-.15.07-.11.23v.26l-.24.25h-.17l-.24.27-.25.28-.26.24-.24.25-.93.65-.24.06-.32.38,0,.35L11,37.6h-.19l-.14.17-.18.43-.1.67-.53.77.07.92,0,.24-.12.2-.06.19v.48l-.18.08-.07.3,0,.48L9.29,43v.44l-.17.34,0,.51.18.23a2,2,0,0,1,0,.23s-.06.26-.06.26l-.24-.26v.24l.21.38.09.53.19.64.33.51,0,.32v.41l-.08.3.16.2,0,.58.12.3,0,.38-.18.39.16.15,0,.15-.09.16.22.23v.5l-.08.36H9.77l-.14.22H9.36l0,.26.12.39.42.65.77.67v.48l.3.42.68.81.56.46.56.16.69.18-.42.67-.39.29-.15,0v-.11l-.76,0-.35-.13V56.6l-.78,1.06.26.16,0,.78.19.21v.29l.25.53.67.56.88.7.18.06V61l.36.23-.1.1.54,1,.29.17a2.25,2.25,0,0,0,1.1,1.15l-.07-1.4.14.14.18-.14V63l.16.21.1.64.09.12v.3l.2.18.5.06.26.13v.26l.18.38.32.05.45-.31v-.26l.45,0,0,.22.34.29h.36l0-.38-.29-.33.42.21,1.2.14,1.07.53.06.08v.12l0,.12.14.1a1.74,1.74,0,0,1,.08.32s0,.22,0,.25.17.19.17.19L22,67l.12.15a1.53,1.53,0,0,1,0,.24,2.48,2.48,0,0,1,0,.28,2.78,2.78,0,0,0,.26.37l.14.32s.22.56.27.68a1,1,0,0,1,0,.42.63.63,0,0,1-.09.28s.21.24.21.24l.13.35s.18.08.2.12l.19.28.15.27.14.13.09.07,0,.15.07.2.34.16.16.24.27.35a2.46,2.46,0,0,0,.24.24l.18.33a2.05,2.05,0,0,1,.13.23s.18.19.2.22a.58.58,0,0,1,0,.17l.26.1.33.12.23.06.21.23.35.06.09.37.29-.07.31,0,.35.13.32.42s.12,0,.12,0l.26.15.13.1.32.06.21-.05.35.11.19.11.14.11.27,0,.27.25.16,0,.18.08.22.18.1.11.33.05.25,0H32a1.24,1.24,0,0,1,.25.07s.06-.05.08-.07.23.11.27.08a.19.19,0,0,1,.07,0,1.79,1.79,0,0,1,.22.08c.05,0,.11-.06.11-.06a.66.66,0,0,0,.17-.06.55.55,0,0,0,.07-.11s.15,0,.15,0l.15-.05.18,0h.18A.21.21,0,0,1,34,76s.17,0,.17,0a.18.18,0,0,1,.12,0s.19,0,.19,0l.07,0,0-.09.23-.4a.86.86,0,0,0,.09-.18s.06-.11.06-.11A.46.46,0,0,0,35,75a.23.23,0,0,0,0-.07h-.1l-.11,0a1.76,1.76,0,0,1-.15.1l-.18,0a1.82,1.82,0,0,1-.28,0l-.09,0a1.21,1.21,0,0,0-.25,0,.2.2,0,0,1-.11.05l-.16,0a1.11,1.11,0,0,1-.21,0,.38.38,0,0,1-.08-.06,1.16,1.16,0,0,0-.21,0L32.84,75a.69.69,0,0,1-.12-.1s0-.14,0-.14l-.08-.06-.1.06-.08.12-.15,0,0-.07.05-.09.14-.14-.1-.15-.66-.07-.05.12h-.25v-.15l.06-.1-.13-.1-.08.08-.17,0s0-.09,0-.09L31.1,74,31,74v-.14l.05-.11a.91.91,0,0,0-.09-.16.33.33,0,0,1-.09-.11s0-.1,0-.1l.06-.12v-.1h-.1l-.07.12-.05.12-.09.11-.25,0-.2-.07s0-.13,0-.13l.16-.05.15,0,.18-.06.21-.1a1.12,1.12,0,0,0,.13-.16s0-.13,0-.13l-.16-.05-.26,0-.33-.11a1.37,1.37,0,0,0-.21,0,.65.65,0,0,1-.1-.13l.13-.08.21,0,.26-.07.23-.12.21-.17.09-.27.12.07s0,.24-.06.3,0,.4,0,.43.14.14.16.16a2.45,2.45,0,0,1,.1.3l-.12.24L31,73.3v.21l.09.09,0,.28.15.1a2.72,2.72,0,0,0,.29.18.31.31,0,0,1,.12.12l.16,0,.38,0,.34.09h.59l.54.16.37.12h.48c.05,0,.36.08.36.08l.4-.1.47,0,.18-.18.57-.2.4-.22.31-.26.25-.21.46-.18.41-.29.24-.51.07-.22.25-.16.2-.1.24-.07.33,0,.19-.09.29-.27.18-.24v-.17l.11-.21h.17l0,.15-.17.07,0,.14a1.59,1.59,0,0,1-.05.17,1.75,1.75,0,0,0,.05.27.7.7,0,0,0,0,.13l-.14.18-.17.16,0,.29-.13.24,0,.28s0,.24,0,.26,0,.19,0,.21a1,1,0,0,0,.2.1l.2.11.3-.06v-.12l.15,0,.16,0,.06.23a.92.92,0,0,1,.14.1,1.68,1.68,0,0,1,0,.21l-.1.13-.1-.08L41.09,74,41,74l-.08,0-.1-.05-.1-.13a.48.48,0,0,0-.12,0,.37.37,0,0,1,0,.09s-.14,0-.14,0l-.06-.07-.14,0-.15.18s0,.13,0,.14a1.28,1.28,0,0,0,.09.15l.3.1.06-.09.1,0,.1.09.11.18.13.27.12.1,0,.12a.77.77,0,0,0,.12.08s.07.08.07.08a.16.16,0,0,1,0,.07s-.06,0-.08,0H41s0,.08,0,.1l0,.11a1.84,1.84,0,0,0,.21.15.82.82,0,0,0,.22,0c.08,0,0,0,0-.07s0-.15,0-.15h.11a.47.47,0,0,1,.11,0l.1.05.13.07s0,0,0,.07.07,0,.09.06l.06.09a.13.13,0,0,1,0,.06h-.11l-.12,0a.1.1,0,0,1-.06-.06s-.12,0-.12,0a1.06,1.06,0,0,0,0,.12s0,0,0,0h-.08s0,0-.07,0,0,.07,0,.09-.1.07-.12.08h-.16s0,0,0,.09,0,.09,0,.12-.05.09-.05.09l-.13,0c-.05,0,0,.07,0,.08l0,.08h-.11l-.08-.1s-.07,0-.12,0,0,.11,0,.15a.18.18,0,0,1,0,.1h-.09s0-.09,0-.11a.2.2,0,0,0-.08-.06s-.05,0-.06.07a1.39,1.39,0,0,0,0,.15s-.08,0-.12,0-.06-.06-.06-.09,0-.07,0-.09a.29.29,0,0,0,0-.09s0-.14,0-.14a.64.64,0,0,0-.08-.09s-.05,0-.08,0,0,.15-.05.17,0,.1,0,.12-.08,0-.08,0v.1h-.11l0-.11,0-.17,0-.14,0-.15.07-.1V76a1.4,1.4,0,0,1-.08-.15s0-.1,0-.1v-.18l-.09-.23-.22-.09a1.08,1.08,0,0,1-.11-.14L39.3,75h-.12s0-.14,0-.14l-.78-.08-.27,0-.11.07-.15,0a.45.45,0,0,1-.11-.06l0-.09-.27,0h-.27a.38.38,0,0,0-.12.1.6.6,0,0,0,0,.08l0,0h-.12l0-.15h-.24l-.06.09-.06.11-.08,0s0-.13,0-.13l0-.08a.5.5,0,0,0-.14,0,1.16,1.16,0,0,0,0,.13A.94.94,0,0,0,36,75S36,75,36,75h-.13l-.11,0-.09.12-.06.12v.09l.08.06.1.15h.31s.1-.11.1-.11l.18-.05h.19l-.11.11v.14l.28,0v.14l.2.1.2,0,.09.09.23,0,0,.11.18.05h.24l.16.09.16.19a.8.8,0,0,1,0,.17l0,.12-.09.13,0,.14L38,77l-.06.09-.19,0,0,.12-.05.14.09.16.09.1.13.11,0,.24.27,0,.07.21.13.13,0,.08h.25l.16.18-.17,0a1,1,0,0,0-.12.12l-.08.09-.12.11v.14l.16,0,.07.14.13,0,.12-.07.19,0,.16-.06.14-.13s0-.08,0-.1a.62.62,0,0,1,0-.13l.19,0,.23.13,0,.12-.13.08s-.08.1-.08.1v.13l.25.07.12.11.07.14.17.11s0,.11,0,.13-.11.11-.11.11l-.14.08.14.18.15-.06.1.06.2.1-.11.16.18.25.16,0,0,.14.11.08.11.17.12,0,.14-.08,0-.1,0-.11.23,0,.19.05a1.91,1.91,0,0,1,.17.14l.1.1.12,0v-.11l.21-.1.12.06.18,0,.2,0h.35l.12.09.19.09.14,0,0-.08L43.58,81l-.15-.09V80.7l.25.06h.13l0-.12.08-.08H44l0,.14.09.13,0,.16h.14l.16,0,.19,0,.17,0,0-.06,0-.14-.11-.05-.08-.17-.09-.09-.17,0s-.05-.06-.05-.06a1,1,0,0,0,.05-.12s.06-.08.06-.08l0-.07-.12,0,0-.12-.06-.05-.12,0v-.09l0-.1.12-.07h.15l.08-.07,0-.1-.13-.1v-.11l.1,0,.09.06h.12l0-.09,0-.08.07,0s0-.28,0-.3,0-.14,0-.14l-.08-.06,0-.07,0-.07.07,0,0-.09-.05-.07v-.07l.08-.05V78l-.09-.09-.15,0s-.08-.07-.08-.07v-.1h.29l.09,0,.08.07h0l.1.08.12,0h.25l.11,0,.24,0,.18,0L46,78l.07,0,.15,0,.09,0,.09.16.12.18.11.15.13,0,.09.23,0,.26a1.05,1.05,0,0,0,.08.15l-.08.15-.08.13.12.07.09-.05h.15l.1.12.23.16.18.21.17.21.1.16v.11l.12,0h.11l.08.14-.1.1,0,.09.13.1.17.21-.06.1-.06.09s.08.12.08.12l.13.11.11,0,.06.15,0,.24.09.07.13-.17a1.35,1.35,0,0,1,.13-.12h.32c.06,0,.09.07.1.09s0,.08-.16.08A.93.93,0,0,0,49,82a1.79,1.79,0,0,0-.17.17v.13l.15,0,.15.12.21.08.13.26h.27a1.63,1.63,0,0,1,.25.11,1.44,1.44,0,0,0,.22.05l.07-.2v-.22l.11-.19-.06-.1.1-.19.12-.07.12.08.18.1s.16.07.17.1a1.23,1.23,0,0,1,0,.14s-.08.09-.08.09l-.14,0-.14,0-.11,0-.12.16,0,.23.12.13s0,.25,0,.28.15.11.19.14,0,.24,0,.24l.07.16.23.11L51,84a.81.81,0,0,0,0,.23l.1.12-.09.27.09.14-.17.17.13.2.2.16.73-.07h.29l.18-.09.4.12.17.14.19-.06.11.1h.38a1,1,0,0,1,.19.11l.25-.06v-.18s.14-.06.14-.06l.11-.14L54.33,85l.14-.17h.13l.09.17s0,.21.07.25-.12.13-.12.13l-.2.07,0,.12-.25.12-.1.15.16,0,.24-.07.16.07.23-.13.24-.12L55,85.46l.13-.12.15,0h.15l.11.15.19.07.1-.07h.28l.23-.11,0-.13-.22-.08L56,85l-.06-.23L56,84.6l.12-.29.12-.21.39-.12-.07-.22.12-.24.3-.07L57.1,83l.18-.14.46-.25.46-.46s.37-.16.41-.19l.35-.19.25-.41.31-.24.39-.17.1-.24,0-.22.18-.24v-.15l.1-.19.27-.26s.18-.08.18-.09l.14,0,.19-.07.17-.17.06-.14v0h-.07a1.76,1.76,0,0,1-.18.18,2.23,2.23,0,0,1-.5.15c-.13,0-.21.21-.25.25a.69.69,0,0,1-.21.12c-.07,0-.19,0-.25,0a1.33,1.33,0,0,0-.25.07,1.16,1.16,0,0,1-.25-.06.9.9,0,0,1-.13-.18l.13-.25.18-.16.06-.31.18-.29.31-.38.18-.31.26-.12h.26l.26,0,.06.24-.07.29.06.26h.15l.19-.09.1.19s0,.16,0,.21a1.76,1.76,0,0,0-.13.37,2.31,2.31,0,0,1-.26.46,1.48,1.48,0,0,1-.28.24c-.07,0-.34,0-.4,0s-.06.21-.07.34a.29.29,0,0,1-.07.19.91.91,0,0,0-.13.48,1.55,1.55,0,0,0,.32-.1.46.46,0,0,0,.1-.18,1.76,1.76,0,0,0,.22-.19A.21.21,0,0,1,61,80.5a2.68,2.68,0,0,1,.09.26,2.77,2.77,0,0,0,.09.26s.09.19.09.19h.31l.1-.25-.22-.09v-.22l0-.24.18-.15.1-.15.1-.15H62l.16-.12v-.19l.09-.1.26-.09c.26-.09.15-.21.22-.32l.18-.28.1-.19a1.36,1.36,0,0,1,.21-.21,2.06,2.06,0,0,0,.18-.26,2.59,2.59,0,0,0,.1-.32,1.08,1.08,0,0,0,.21-.48.52.52,0,0,0,.1-.32l.07-.14,0-.15a.79.79,0,0,0,0-.19l.09-.16.18-.24a2.74,2.74,0,0,0,.12-.37C64.35,75.78,64.24,75.69,64.24,75.69ZM10.65,49l-.06.21-.06.14-.06.13-.07.07,0,.17-.05.09h-.07l.06-.26.13-.22s.08-.31.08-.36v-.61l-.13-.15A.88.88,0,0,1,10.3,48l0-.2.05-.21s-.11-.3-.13-.37-.18-.45-.2-.5l-.1-.27a1.74,1.74,0,0,0,0-.39s-.16-.25-.16-.25a1,1,0,0,1-.08-.23,1.3,1.3,0,0,0,0-.19s0-.27,0-.27l-.13-.28,0-.35.06-.29,0-.48.1-.36,0-.32.18-.2.08.16.08.31,0,.22,0,.27-.09.23a3.43,3.43,0,0,0-.07.44,2.5,2.5,0,0,1,0,.26A1.65,1.65,0,0,0,10,45s.08.13.07.16,0,.16,0,.23.08.31.08.31.08,0,.08.1a1.1,1.1,0,0,1,0,.2l.17.14v.18s-.09.06-.09.09a2.39,2.39,0,0,0,0,.46s.13.36.15.4.14.27.12.3c-.17.42,0,.62,0,.62l.1.09.06.17Zm2.85,4.37L13.22,53l-.2-.25L13,52.47l-.22-.34-.25-.27.27.11.18.22.13.34.35.31.23.2.15.3.65.55.24.12h.26l0,.18.11.21.22.22v.33l-.16.09h-.24L14.66,55l-.11.06h-.31v-.18l-.14-.25-.18-.13V54.2l-.18-.06-.09-.25v-.41Zm2,2.7a1.83,1.83,0,0,0-.08.29s0,.2,0,.2l-.21.23-.06.18s.08.06.07.1-.08.23-.08.23l-.07.13a.77.77,0,0,1,.1.09s-.29.26-.29.26l-.06.23,0,.29-.09.26-.22.15.07.15s.15.18.17.21a1.3,1.3,0,0,1,0,.21s.13.2.18.2a1.61,1.61,0,0,0,.25-.07l.06.27-.06.12a1.12,1.12,0,0,0-.17-.19.62.62,0,0,0-.18,0l-.14-.08a3,3,0,0,0-.35-.06,2.54,2.54,0,0,1-.28,0L14,59.31h-.21l-.22-.11.29-.26.09-.32s.43-.61.46-.62.24-.44.24-.44.11-.24.11-.26.19-.51.19-.51a3.43,3.43,0,0,0,.31-.38,2.69,2.69,0,0,1,0-.34l.1-.29.13.1ZM36,34.25V34l.1-.1.22-.06.09-.11a1.1,1.1,0,0,1,.21-.09,1.05,1.05,0,0,1,.19.11l.1.16.15.08.08.21a2.19,2.19,0,0,0,.13.18v.12l-.07.12-.18.15-.21.21-.07.21,0,.25.21.07.12.1v.22l0,.17H37v.28l0,.08v.1h-.11l-.05-.15a1,1,0,0,0-.16-.07.27.27,0,0,1-.13-.12s0-.26,0-.26-.07-.07-.06-.11a1,1,0,0,0,.05-.23c0-.06,0-.22,0-.22h-.1l-.1-.1-.09-.09,0-.4-.13-.1-.14-.29Zm-3.45-7.14.19.06.17.12.12.12.29.17.2.16a1.77,1.77,0,0,1,0,.32.88.88,0,0,1-.09.12l-.07.22.1.16.11.2,0,.14,0,.22.19.3.28.28.1.26.17.25.07.28.08.21s.07.32.07.35.15.18.18.23a1.1,1.1,0,0,1,.1.3,1.18,1.18,0,0,1-.13.27,1.43,1.43,0,0,0-.07.19s.24.16.24.16v.4c0,.06,0,.24,0,.3s.28.08.31.09a1.53,1.53,0,0,1,.18.21l0,.22s0,.27-.09.29a1.54,1.54,0,0,1-.31.15c-.06,0,0-.2,0-.23s-.16-.17-.22-.22a1.73,1.73,0,0,0-.28-.14l-.26.18a1,1,0,0,0-.13.24,1.28,1.28,0,0,1-.28-.11.82.82,0,0,1,.08-.21s.14-.13.13-.18A1.54,1.54,0,0,1,34,33l.25-.14,0-.5v-.56a3.09,3.09,0,0,1-.28-.13l0-.15.17,0,.09-.09-.06-.22-.08-.2s-.21-.13-.2-.18.14-.14.14-.14l-.28-.15-.29-.06v-.19l.16-.12v-.53l-.09-.12-.3-.09a.3.3,0,0,1-.09-.06s.07-.09.08-.12a1,1,0,0,1,.1-.14l0-.19-.23-.07a1.16,1.16,0,0,0-.26,0l0-.21.19-.08a1.2,1.2,0,0,0,.17-.09v-.23l-.18-.12h-.22l-.16-.13,0-.25.17-.11-.18-.27-.1-.19Zm-11.42,12,.07,0,.17,0,.18-.06.3,0,.24,0,.09,0,.14.06s0,.09,0,.11a.48.48,0,0,0,0,.1l.13,0,.11.06,0,.16-.08,0s0,.13,0,.13l.12.07v.11l-.69,0-.06-.11-.14-.08a.15.15,0,0,1,0-.07l.13-.05.09-.06v-.1h-.75s-.05.11-.05.11h-.22v-.09l0-.11-.14,0-.11,0,.1-.11L20.8,39h.14l0,0Zm-1-11.35h.2l.15,0,0,0,0-.07-.13-.28s.24.17.26.2a1.29,1.29,0,0,0,.22.11v.12l-.17.06.17.14.14.13s0,.1-.06.1h-.2a.45.45,0,0,1-.05-.14s-.05-.06-.05-.06l-.13.1-.08,0,0-.13-.06-.05h-.12a.61.61,0,0,1-.14,0l0-.1Zm.23,7.65v.46l-.1.2v.17l-.13,0a1.36,1.36,0,0,1-.1-.15s-.05-.17-.05-.17,0-.17,0-.19a.83.83,0,0,0,.13-.14l.16-.29Zm-1-5.13.17-.07.13,0,.09,0,.11-.13s0,.19,0,.21.1.08.12.09.09.09.07.1l-.16,0-.15,0-.18,0a1.23,1.23,0,0,1-.18-.12l-.17-.18Zm0,1.51s0-.08.06-.09l.07-.05.27.06v.12l.21.14-.07.11L19.68,32l-.11-.13h-.19S19.39,31.76,19.37,31.75ZM17.49,63.48l-.2.08a2.65,2.65,0,0,0-.08.3s0,.26-.06.28a2.86,2.86,0,0,0-.23.19s-.26-.14-.26-.17a2.52,2.52,0,0,0,0-.39s-.16-.18-.16-.23.07-.24,0-.26-.11-.17-.15-.2l-.23-.16s.08-.11.11-.12a1.77,1.77,0,0,0,.14-.32l.09-.24.28.36.12.22L17,63l.33.14.14.17Zm4,.87-.13,0-.22-.12-.13-.1a.59.59,0,0,1,0-.13l.08-.09.15,0,.12,0,0,0,.1.1a1.1,1.1,0,0,1,.07.12A.36.36,0,0,1,21.53,64.36Zm.79-13H22l-.27-.11L21.55,51,21.29,51a2.29,2.29,0,0,1-.15-.24l-.06-.29.06-.14s0-.18,0-.18,0-.16,0-.16h-.72s-.31,0-.32,0a3.19,3.19,0,0,0-.29-.25s-.12.07-.16,0l-.31-.19-.54-.11-.22.07-.4.15-.31,0-.38.19-.31.09-.21.2-.16.2-.25.16h-.18l-.2-.06-.1.14L16,50.4v-.3l.16-.2v-.18a1.15,1.15,0,0,1,0-.19l.25,0,.27-.24.2.1.09.2.16-.09s0-.11,0-.16l.21-.21.18-.14.19,0,.15,0,.1-.1.14,0,.17.08.11.09a1.74,1.74,0,0,0,.3,0l.3.08s.46.09.49.08a2.32,2.32,0,0,0,.21-.15s.09-.13.12-.13h.34l.19.11.37,0,.28.09s.07.2.12.21a1.93,1.93,0,0,0,.3,0l.15-.08.38.1.07.17s-.06.13,0,.19.26.34.26.34,0,.49,0,.52a2,2,0,0,0,.13.25l.06.24S22.36,51.3,22.32,51.31Zm.1-10.92-.09.08-.16.16-.21.05,0,.22-.17.13-.11.15v.24l0,.21a1.54,1.54,0,0,0-.17.18s0,.21,0,.21l-.25.15s0-.1,0-.12a1.1,1.1,0,0,1,0-.28v-.4l.12-.28.19-.17.14-.2a1.2,1.2,0,0,0,0-.22l-.11,0-.1.09-.15,0,.09-.16.14-.12.19-.05h.2l.18-.09.23,0,.21.07h.2l.17,0,.27.15h.22l.12.06.14.14.16.14v.32l-.13-.06-.13-.2-.11,0,0,.14v.23l-.08.11,0,.16a1,1,0,0,0-.1.15,1.17,1.17,0,0,1-.1.16l-.1,0,0-.16-.07-.1a2.73,2.73,0,0,0-.24-.14l0-.16.18-.16s0-.16,0-.2,0-.24,0-.24l-.27-.11Zm6.48,1.77s-.09.31-.09.31l-.07.26a1.64,1.64,0,0,0-.25.16s-.31.26-.31.26l-.11,0-.71.24-.46.23-.44.22-.15.19s-.35.28-.35.28a2.14,2.14,0,0,0-.24.26s-.24,0-.24,0l.08-.11v-.22l.1-.17.14.09.2-.09.25-.28v-.19s0-.18.12-.16a1.32,1.32,0,0,0,.33.06l.23-.15.27-.14a1.92,1.92,0,0,0,.35-.32,2,2,0,0,1,0-.26l.12-.33.3-.13.24-.16.24-.23.3,0,.17.13S28.9,42.13,28.9,42.16Zm3.9-3.46-.15.09-.28.08-.11.15-.23.14-.14.19-.13.15h-.34l-.25.08s-.13.16-.17.17a1,1,0,0,0-.29.12,1,1,0,0,1-.2.22,1.43,1.43,0,0,0-.27.15l-.11.25s-.2.13-.12.15l.31.06s.16,0,.19,0,.14.06.14.06-.08.11-.14.1h-.28s-.09.11-.12.11h-.21s-.06-.11-.09-.11-.08-.13-.08-.13v-.14a2.5,2.5,0,0,0-.26-.07,1.51,1.51,0,0,1-.24-.09s0-.1.06-.1a1.36,1.36,0,0,0,.19-.06s.15-.09.15-.12,0-.19,0-.19a1.59,1.59,0,0,0-.2-.11.83.83,0,0,0-.24,0,3,3,0,0,0-.37.09s-.15.08-.16.12a1.5,1.5,0,0,1-.35.15l-.26.14-.27.22-.22.16-.5.18a1,1,0,0,1-.2.11h-.19a1.06,1.06,0,0,0-.14.15s-.11.18-.15.19l-.29.1-.32.15-.32.06-.19.09v.18L25.1,42l-.19.1h-.23L24.51,42l-.35,0H24l-.07.09.18.14-.1.1h-.24s-.17,0-.18.08-.12.11-.12.11h-.21l-.18.11a.94.94,0,0,1-.24,0h-.22l-.12-.09v-.13h.26l.19.06.1-.13.14-.12h.25l.22,0,.08-.12.11-.18.21-.12.19-.08a2.07,2.07,0,0,1,.21,0l.27,0,.16.07.11,0,.08-.16.21-.15.38-.09.29-.11.12-.08.17,0,.17-.2.12-.09.11-.08.14,0,.2,0,.13-.09.26-.11.25-.11.68-.57.35,0,.23-.2.31-.08.29-.12h.27l.15,0v.08l.13.08.2,0,.32,0,.26,0,.22-.12.18-.15.18,0h.33L32,39l.23-.21.19-.12.18,0-.07-.17-.18-.07,0-.16.1-.16h.13l.11.16.11,0,.15.2Zm1.8-.77s-.11-.11-.12-.15,0-.2,0-.2l-.25-.24H34v.12l-.11,0-.22-.08s-.07.12-.06.14l.1.12,0,.15-.11.1V38l-.09,0s-.18.13-.18.17a.84.84,0,0,1-.05.16l-.11,0,.12-.22a1.26,1.26,0,0,0,0-.13s.1-.11.12-.13a.63.63,0,0,0,0-.19c0-.05,0-.25,0-.25l-.21-.32-.07-.27a1,1,0,0,1-.1-.15,1.51,1.51,0,0,1,0-.18l.07-.16.1-.17s0-.24,0-.24l-.12-.24a1,1,0,0,0-.1-.12l-.25-.15s-.05-.15,0-.18.11-.15.14-.15.05-.06.12,0l.27,0s.08-.14.07-.17a2.24,2.24,0,0,1,0-.26l.07-.16,0-.18.15-.06h.12l.07.17s0,.09.07.1H34l.07.11s.11.06.11.06l.1,0h.19l.12-.08.1-.13.11-.11.13,0v.14l-.13.14,0,.12-.12.07-.07.1-.13.06-.13.05,0,.16.1.13,0,.11a.56.56,0,0,1-.1.1s-.12,0-.13,0a1.06,1.06,0,0,0,0,.15l.32.11.19.12a1.06,1.06,0,0,1,0,.15l-.07.2s.1.16.11.16a.57.57,0,0,1,0,.11l.18.1.09-.12.09-.15.23.07.09.12,0,.15,0,.12h-.17s-.13.1-.14.12,0,.1,0,.13l.1.1-.1.13H35l-.14.05,0,.09a1.36,1.36,0,0,0,0,.15h.32l.12.12s0,.13,0,.15l.2.06.25.08h.23l.15.15.15.17.13.07a.39.39,0,0,0,0,.13,1.09,1.09,0,0,1,0,.25,1.07,1.07,0,0,0-.11.15,1.67,1.67,0,0,1-.18.2l-.26.24-.09-.07-.15-.12-.12-.34s0-.23-.06-.26a1.77,1.77,0,0,1-.17-.26L35,38.23l-.21-.1A2.15,2.15,0,0,1,34.6,37.93Zm3.7,2.37-.1.07-.18,0s-.17.05-.18.07,0,.18,0,.18a.94.94,0,0,0,.09.15s.08.07.08.1,0,.1,0,.14,0,.21,0,.29a1,1,0,0,1,0,.25.26.26,0,0,1-.1.07,1.12,1.12,0,0,1-.27,0,.34.34,0,0,0-.18-.07h-.29a.32.32,0,0,1-.22,0l-.22-.11-.25.07h-.15a1.8,1.8,0,0,0-.26-.18h-.31a1.83,1.83,0,0,1-.25,0,1.21,1.21,0,0,0-.16-.07H35l-.18,0h.1l.21-.1.24-.12L35.5,41h.37l.35.09h.22l.21,0,.13-.05s.15-.14.17-.15l.24-.11.15-.07.06-.18.15-.21.07-.19h.18L38,40l.24.08.05.11Zm5,21-.09.21a.68.68,0,0,1-.23.21l-.23,0s-.05.07-.05.07l.05.1-.07.13-.15,0s-.07.06-.08,0a.49.49,0,0,0-.15,0v-.13l-.13-.07H42l0-.12.06-.17.08-.17.09-.06,0-.1v-.12l.11-.14.12-.14.25,0,.17,0,.16-.07a1.06,1.06,0,0,1,.23.11s.11.15.12.18.07.19.07.19Zm2,2.61a.9.9,0,0,0,0,.12l0,.17,0,.14,0,.18,0,.15-.17.14-.13.07,0,.14-.09.06-.08,0-.06-.21.14-.07.1-.19a1.28,1.28,0,0,0,0-.13l-.11,0-.12-.06a1.13,1.13,0,0,1,.05-.16l.19-.18s0-.08,0-.1l.1-.1.12-.07a.52.52,0,0,0,0-.08l.16-.06.07,0,0,.1S45.33,63.89,45.32,63.9Zm4.14-8.58a3.71,3.71,0,0,0,0,.47l-.22.12-.17-.17a2.4,2.4,0,0,0,0-.24,1.21,1.21,0,0,0-.21-.34,1.18,1.18,0,0,1-.16-.35,3.19,3.19,0,0,1-.11-.47s0-.42,0-.42l-.09-.46-.24-.29a2.78,2.78,0,0,1,0-.35s0-.4,0-.44a1.27,1.27,0,0,1,.1-.23l0-.18v-.52l.16.61-.16.37v.35l.14.33.27.39.27.33.12.39.25.51A5.5,5.5,0,0,1,49.47,55.32ZM53.68,80s-.11.14-.16.1a1.81,1.81,0,0,0-.33-.13l-.24,0v.1l.1.05-.18.13h-.25s-.06.06-.06.08a.76.76,0,0,1,0,.13s-.12.11-.12.11l-.1.15L52,80.67l-.11,0-.16.1-.15-.05.22-.15.23-.15.13-.15.07.07v.15h.15l.06-.17s-.06-.12,0-.16l.3-.11s.05-.21.07-.24a1.09,1.09,0,0,1,.11-.23,1.49,1.49,0,0,1,.26,0l.4.09a1.31,1.31,0,0,1,.07.14A.61.61,0,0,1,53.68,80Zm1-7.82s-.15.11-.15.11-.21,0-.24,0l-.28.18a1.07,1.07,0,0,0-.12.29s-.07.18-.07.16a2.34,2.34,0,0,0-.2-.19v-.21l-.17-.27-.21-.34-.18-.22-.49-.1a1,1,0,0,1-.32-.1,1.26,1.26,0,0,0-.2-.2,2.08,2.08,0,0,0-.31,0s-.07.16-.07.16a1.9,1.9,0,0,1-.17.14,1.43,1.43,0,0,1-.29-.09s0-.18,0-.18l-.15-.12h-.19l-.05.15a1.69,1.69,0,0,1-.18.16h-.37l.41-.19.15-.3.2-.1.19-.17.13-.1.09-.21.2-.24.07-.06.4.12a1.06,1.06,0,0,1,.38.24c0,.07.11.21.13.2s.26.15.26.15.24.1.25.08a1.07,1.07,0,0,1,.19-.12,3.09,3.09,0,0,1,.34.1,3.31,3.31,0,0,1,.25.28,2.65,2.65,0,0,0,.22.25s.07.15,0,.21a.27.27,0,0,0,0,.15,2.25,2.25,0,0,0,.37.07l.23.06S54.68,72.12,54.67,72.17Z"></path><path d="M29.32,34.25l-.06.16-.35-.08h-.42l-.25-.26L28,34l-.21-.19v-.2l-.06-.18-.18-.2-.07-.2h-.14l-.07.14-.14,0-.11.08s0,.11,0,.12l-.15,0a.74.74,0,0,1-.16-.13s-.11-.31-.08-.28.24,0,.24,0l.36-.13.16-.23h.2l-.07-.18s-.08-.25,0-.27l.21-.07h.24l.12.17.38.12.27.22.14.25.39.18.24.32.11.21.12.28-.1.24a2.12,2.12,0,0,1-.3-.19,2.23,2.23,0,0,0-.23-.22l-.25-.09s0,.21,0,.21A1.24,1.24,0,0,1,29,34Z"></path><path d="M24.78,32.76h.17L25,32.6l.08-.16h.15l0,.16a.3.3,0,0,0,0,.1s0,.24,0,.24.15.12.19.11l.19-.08,0-.26v-.15s.15-.06.15-.11a2.08,2.08,0,0,0-.22-.47h-.35l-.2.1-.22.19-.15.12Z"></path><polygon points="27.19 31.71 27.03 31.6 26.97 31.46 27.08 31.31 27.27 31.31 27.27 31.47 27.31 31.6 27.19 31.71"></polygon><path d="M27.8,31.82V32l.12.06L28,32l.13.17.21.12.24.06.15.13.22,0,.21,0,.13-.28-.13-.17v-.14l-.15-.3-.26-.07-.09-.23.18-.1L28.61,31l-.18-.16s.16,0,.18-.06a1.22,1.22,0,0,0,0-.3l-.26,0-.22-.07v-.13l0-.12L27.53,30l-.14-.14-.09-.38.08-.18h-.24l-.06.14L27,29.33l.09-.24.16-.07,0-.16L27,28.69l-.24,0-.17.21-.09.11v.12l-.16.12-.1-.21.08-.2.13-.19.14-.07-.16-.11-.19,0-.15.11-.13.12-.16.18v.36l-.08.22.17.16.12.22,0,.2.07.25.16.07.22,0,.1,0,.15.21.27.22.17.18.17.2.15.1.13.2.07.15.14.11Z"></path><path d="M25,30.26h.16l.16-.15.12-.1v-.27l-.08-.24-.1-.18a1.6,1.6,0,0,1,0-.18,1,1,0,0,1,.12-.12l.12-.07v-.13l.1-.06.13,0,.11-.1a.75.75,0,0,0,.07-.21,1.09,1.09,0,0,0-.14-.21h-.17l-.18.13v.19l0,.13-.2.1-.12.15v.19l-.15.12-.08.25,0,.22.05.18,0,.29Z"></path><path d="M24.68,30h-.19l-.12-.17a.13.13,0,0,1,0-.13c0-.06.15-.14.14-.15s.11-.07.11-.07a1,1,0,0,1,.14.1.88.88,0,0,1,0,.17l-.06.09.06.11Z"></path><polygon points="24.18 30.11 24.24 30 24.18 29.82 24.1 29.77 23.95 29.77 23.95 29.91 24.01 30.05 24.05 30.14 24.18 30.11"></polygon><path d="M24.84,28.81l-.07-.15,0-.18-.1-.12,0-.13.13-.16.1.07s.14,0,.15,0a1.67,1.67,0,0,0,.05-.21l.15-.05.15.07.07.15-.11.16s-.05.24-.05.24l-.13.16-.22.12Z"></path><path d="M23.32,29.24l.11-.06.11.06v.09l-.11.09v.09l.16,0,.07.15h.11l.18-.12.21-.07.26-.21.06-.32-.07-.26-.06-.12.09-.1.11-.18,0-.23a1.26,1.26,0,0,0-.08-.21l-.06-.14-.21-.05-.14.14-.09.24-.17.17V28s.06-.23.06-.25,0-.26,0-.26h-.15l-.13-.13-.1,0,.07-.11-.11-.13L23.24,27l-.4.12v.12s0,.1,0,.14a1.21,1.21,0,0,0,.18.13l0,.13-.22-.08-.07-.19-.19.06v.16l.1.08.15.17-.25,0-.14-.11-.11.15V28s.1.15.12.15.12.12.12.12h-.32l0,.1.1.15s.17,0,.19,0a.53.53,0,0,0,.16.07l.19.09.11.15.15.12.07.18Z"></path><path d="M22.21,27l-.06.12v.07l.13.06.15,0,.12,0,.12-.13.07-.19.21,0h.3s.13-.21.11-.23a.7.7,0,0,1-.09-.13s-.09-.21-.11-.24L23,26.14l-.1,0s-.09.1-.11.09h-.15l-.11.12-.12.16s-.15.07-.15.09,0,.18,0,.18Z"></path><path d="M21.83,27.43h.38s.08,0,.08.06a.64.64,0,0,1-.07.12l-.12.11,0,.17h-.14l-.05-.23-.19,0V27.5Z"></path><path d="M23.46,26.59v.25l.12.15.18.07.26.05.06.11-.14,0v.09l.24,0,.39,0,.29-.12S25,27,25,27s0-.22,0-.22l-.26-.06-.13.06-.11-.18h-.19s-.1.1-.09.12a.61.61,0,0,1,0,.16l-.14,0a.29.29,0,0,1,0-.12.55.55,0,0,0-.07-.18.45.45,0,0,0-.11-.1l-.16,0-.13.06Z"></path><path d="M25.23,27v.15l-.08.1-.12.09a.6.6,0,0,0,.06.09h.25l.09.1-.15.06-.07.09h.1l.2,0s.12-.21.14-.23l.13-.09,0-.27-.15,0h-.15l-.1-.12S25.23,27,25.23,27Z"></path><path d="M25.82,27.59l-.18.15s0,.07,0,.1,0,.13,0,.13h.18s.11-.08.11-.08l.08-.15Z"></path><path d="M26.14,27.63l0,.26L26,28s0,.08,0,.1l.19.08.21.14.2.12a.82.82,0,0,0,.21.06,1,1,0,0,1,.21,0l.1.1.12-.1.15-.1v-.12l-.17-.07H27l-.27-.1L26.49,28l0-.08.13,0,.26.08.29.15.28-.1.12-.05H28v-.13l-.31,0-.14-.09-.22,0-.32,0-.16-.07h-.46Z"></path><path d="M26.73,27.37l.08-.09H27l.22,0,.18,0-.07-.09a.75.75,0,0,0-.17-.07H27l-.17,0-.15.09-.16.09-.12,0a1,1,0,0,1-.12-.13l.09-.07-.06-.1s0-.13,0-.14.09,0,.14,0a1,1,0,0,1,.23,0l-.13-.12a1.32,1.32,0,0,0-.24-.05l0-.1.12-.06h.12v-.21s0-.06.06-.07h.14l0-.23h.1s0,.11,0,.12l.12,0v-.15L27,26,27,26l0,.12h.1s0-.09,0-.11,0,0,.07-.07a1.41,1.41,0,0,1,.12-.14h.2s0,0,0-.07l.13-.1.07,0a.15.15,0,0,0,.12,0v-.09l.07,0,.12.1.06-.07.17-.16.07.07v.1h.11v-.11l.1-.05.15.06c0-.12,0-.21,0-.21h.13l.07.08.1,0,.11.05.08.1h.18l.21.05s0,.07,0,.1.11,0,.11,0l.14,0v.11L30,26a.49.49,0,0,1-.25,0L29.63,26l-.15,0,0,.07.14,0,.1.06h.07l0,.18s-.09,0-.11,0a.91.91,0,0,0-.16-.07l-.13.07h-.1v.09l-.15,0-.07.09-.14,0-.12-.11-.1.09.09.15-.06.1-.15-.1a.1.1,0,0,0-.07,0,.9.9,0,0,0-.16,0l0,.09.13,0,0,.11-.13.12-.16.12-.14,0,0,.1-.11.11,0,.08.08.07-.07.11-.15-.07-.23-.09-.1.09-.2-.08H27l-.11-.07-.11.05Z"></path><path d="M25.42,25.84V26l-.07.09,0,.13.11.15a.48.48,0,0,0,.17,0s.12-.15.1-.18-.12-.15-.13-.21S25.42,25.84,25.42,25.84Z"></path><polygon points="25.93 25.94 25.93 26.04 26.01 26.02 26.01 25.91 25.93 25.94"></polygon><path d="M25.93,26.26l-.17.2s.05.15.06.16l.07.13,0,.16a1.84,1.84,0,0,0,.17-.13s0-.18,0-.24.18-.12.18-.15S25.93,26.26,25.93,26.26Z"></path><path d="M25.42,26.59l-.13.12.07.13,0,.1h.2s.07-.08.07-.1a1.09,1.09,0,0,0,0-.13v-.12Z"></path><path d="M23.33,26.14a.63.63,0,0,0,0-.1s0,0,.06-.07.11,0,.11,0l.07,0a.34.34,0,0,1,0,.1s-.11,0-.11.07,0,.16,0,.16-.06,0-.08,0l-.08-.09S23.33,26.14,23.33,26.14Z"></path><path d="M23.65,26.26a.93.93,0,0,1,0-.12.55.55,0,0,1,.09-.08H24l.36,0,.08,0a.41.41,0,0,1,.1.08l.06.09a.28.28,0,0,0,.09-.06.32.32,0,0,1,.09-.1l.14,0s.06.09.06.11l-.06.13s0,.11,0,.12l-.2.08-.16-.08-.14,0H24.3l-.11,0s0-.15-.1-.17a.74.74,0,0,0-.18,0l-.13-.05Z"></path><path d="M25,26.26s.07.08.09.07.11,0,.12,0-.06-.17-.06-.17S25,26.25,25,26.26Z"></path><path d="M27.43,74.51l.13.14.21.07s.12,0,.09-.07a2.39,2.39,0,0,0-.25-.14Z"></path><polygon points="28.26 75.05 28.26 75.14 28.4 75.17 28.47 75.11 28.39 75.05 28.26 75.05"></polygon><path d="M28.66,75.17l-.06.07s0,.07.06.07h.15Z"></path><polygon points="29.03 75.3 29.03 75.39 29.17 75.43 29.25 75.37 29.16 75.3 29.03 75.3"></polygon><polygon points="29.69 75.43 29.69 75.52 29.82 75.56 29.9 75.5 29.82 75.43 29.69 75.43"></polygon><polygon points="30.05 75.8 30.05 75.89 30.19 75.93 30.26 75.86 30.18 75.8 30.05 75.8"></polygon><path d="M29.69,75.62l-.06.07s0,.07.06.07h.15Z"></path><path d="M30.74,75.8l-.06.07s0,.07.06.07h.15Z"></path><path d="M31.34,76.15l-.06.07s0,.07.06.07h.15Z"></path><path d="M31,76l-.06.07s0,.07.06.07h.15Z"></path><polygon points="29.9 75.62 29.9 75.71 30.04 75.75 30.11 75.69 30.03 75.62 29.9 75.62"></polygon><polygon points="30.68 76.02 30.68 76.11 30.82 76.15 30.89 76.09 30.81 76.02 30.68 76.02"></polygon><polygon points="30.35 75.86 30.35 75.95 30.49 75.99 30.56 75.93 30.48 75.86 30.35 75.86"></polygon><path d="M29.44,75.43l-.06.07s0,.07.06.07h.15Z"></path><path d="M29.33,75.21l-.06.07s0,.07.06.07h.15Z"></path><path d="M30.28,75.62l-.06.07s0,.07.06.07h.15Z"></path><path d="M81.05,18.06A45.32,45.32,0,0,0,67.22,5.88h0l-.45-.26q-1.69-.94-3.48-1.72A45,45,0,1,0,81.05,18.06ZM88.28,45A43.28,43.28,0,1,1,1.72,45c0-.7,0-1.4.06-2.09,0-.14,0-.28,0-.42q0-.81.12-1.62c0-.18,0-.36.05-.54q.09-.81.2-1.6c0-.14,0-.28.06-.42q.15-1,.34-1.9c0-.22.1-.44.15-.66.09-.4.18-.79.27-1.19s.15-.6.23-.89.17-.6.25-.89.2-.67.3-1L4,31.22a43,43,0,0,1,1.58-4L5.64,27A43.26,43.26,0,0,1,57,3.42h0a43.29,43.29,0,0,1,31.17,38.9h0v.08c0,.26,0,.52,0,.78C88.26,43.79,88.28,44.39,88.28,45Z"></path></g></g></svg>